<?xml version="1.0" encoding="UTF-8"?>
<!DOCTYPE svg PUBLIC "-//W3C//DTD SVG 1.1//EN" "http://www.w3.org/Graphics/SVG/1.1/DTD/svg11.dtd">
<!-- Creator: CorelDRAW 2019 (64-Bit) -->
<svg xmlns="http://www.w3.org/2000/svg" xml:space="preserve" width="8.5in" height="11in" version="1.1" style="shape-rendering:geometricPrecision; text-rendering:geometricPrecision; image-rendering:optimizeQuality; fill-rule:evenodd; clip-rule:evenodd"
viewBox="0 0 8500 11000"
 xmlns:xlink="http://www.w3.org/1999/xlink"
 xmlns:xodm="http://www.corel.com/coreldraw/odm/2003">
 <defs>
  <style type="text/css">
   <![CDATA[
    .str0 {stroke:#373435;stroke-width:3;stroke-miterlimit:2.61313}
    .fil1 {fill:#D7CC75}
    .fil0 {fill:#ED2F59}
   ]]>
  </style>
 </defs>
 <g id="Layer_x0020_2">
  <metadata id="CorelCorpID_0Corel-Layer"/>
  <path class="fil0 str0" d="M5312.44 2580.97l81.43 721.91 -127.12 553.13c-6.37,43.34 -11.39,42.79 18.74,66.09l-291.72 0 -16.4 -4.07 -21.09 -12.2 -17.57 -17.28 -8.2 -19.32 -11.72 -257.24 -397.17 1.02 -105.44 173.87c-4.69,7.11 -7.03,15.25 -7.03,23.39 0,10.17 3.52,20.33 10.55,28.47l42.17 56.94 -16.4 26.43 -420.6 0c-19.92,0 -38.67,-9.15 -48.04,-24.4 -11.72,-15.25 -12.89,-33.56 -3.52,-49.82l677.17 -1121.51c4.69,-7.11 7.03,-15.25 7.03,-23.39 0,-9.15 -2.34,-17.28 -8.2,-24.4l-49.21 -65.07 3.52 -32.54 708.8 0zm-664.28 781.9l250.72 -448.4 0 448.4 -250.72 0zm-297.58 -781.9l-1059.11 0 -5.86 41.69 42.18 32.54c11.72,10.17 18.74,23.39 18.74,37.62 0,4.07 0,8.13 -1.17,12.2l-306.95 1155.06c-3.51,16.27 3.52,32.54 17.57,42.71 14.06,12.2 32.8,19.31 52.72,20.33l773.24 0c-24.69,-5.92 -51.21,-31.72 -33.75,-63.94l150.61 -213.65 -412.1 0 94.9 -319.27 412.4 0c12.89,0 25.78,-4.07 36.32,-11.19 10.54,-8.13 17.57,-18.3 21.09,-29.49l44.52 -203.35 -466.29 0 90.21 -257.24 424.11 0c14.06,0 26.94,-4.07 37.49,-11.19 10.54,-7.12 17.57,-17.28 19.92,-29.49l49.2 -203.35zm1757.37 274.53l189.8 0c1.17,0 1.17,0 1.17,0 5.86,0 11.72,0 16.4,1.02 21.09,4.07 38.66,15.25 49.2,30.5 8.2,11.19 12.89,23.39 12.89,35.59 0,6.1 0,11.19 -2.35,16.27l-22.26 85.41c-4.69,22.37 -19.91,43.72 -41,57.96 -21.09,15.25 -48.04,23.39 -74.98,22.37l-193.31 0 64.44 -249.11zm-549.47 -274.53l-2.34 36.61 63.26 38.63c15.23,9.15 24.6,24.41 24.6,40.67 0,4.07 -1.17,8.13 -1.17,11.19l-282.35 1153.03c-3.52,14.24 0,30.5 11.72,41.69 10.54,12.2 28.12,19.31 45.69,19.31l466.29 0 22.26 -32.54 -62.09 -45.76 -8.2 -16.27 0 -26.44 132.39 -468.74 35.15 2.04 226.11 562.28 15.23 18.3 12.89 7.11 329.22 0c48.95,1.9 52.4,-11.95 60.92,-40.67l64.44 -229.79 -41 0c0,0 -1.17,0 -1.17,0 -22.26,0 -42.18,-11.19 -51.55,-28.47l-156.99 -283.69 125.36 -39.65c116.91,-31 155.05,-111.31 186.28,-217.59l77.33 -290.8c2.34,-10.17 3.51,-21.35 3.51,-32.54 0,-40.67 -16.4,-81.34 -46.86,-112.86 -38.66,-40.67 -96.07,-65.07 -156.99,-65.07l-1091.91 0z"/>
  <g id="_1747866833664">
   <path class="fil1 str0" d="M4517.84 2569.78l-393.07 0c-2.61,-56.67 -6.81,-145.88 31.63,-191.15 14.88,-161.43 21.81,-332.57 185.11,-433.15l296.41 256.23c-58.82,102.11 -158.75,153.58 -264.78,217.59 81.2,47.57 135.17,54.64 144.69,150.48z"/>
   <polygon class="fil1 str0" points="6722.17,1514.37 6793.63,1505.22 6812.38,1577.41 "/>
   <path class="fil1 str0" d="M5373.68 2210.86l78.49 -95.58 281.18 -27.45c62.27,132.37 -26.37,142.07 -94.9,230.81l0 67.11c41.23,14.48 168.75,66.53 125.36,123.03l-281.18 0 -108.96 -297.92z"/>
   <path class="fil1 str0" d="M6661.19 2568.77c1.69,-14.24 -1.22,-28.47 -8.69,-42.7 -99.86,-65.43 -200.85,-69.93 -274.78,-163.7l-125.36 -299.95c12.82,-62.67 7.49,-55.43 77.32,-80.33l107.79 71.17c71.24,36.94 85.2,49.67 167.54,50.84 59.35,3.55 108.62,7.87 164.02,27.45 30.19,13.62 28.45,13.38 62.09,7.12 23.4,-0.88 40.67,0.45 62.09,-8.13 21.7,-1.19 30.06,-9.34 26.02,-18.93l-42.42 -61.4 -4.69 -18.3 -12.89 -14.24 -28.12 -23.39c0,-75.96 45.96,-9.73 76.22,18.72l2.28 22.97 32.36 0.15c54.59,14.24 84.98,18.84 107.06,-0.15 17.62,-7.69 22.48,-31.56 25.94,-51.66l-134.9 -179.15c6.19,-94.93 8.46,-88.89 -81.73,-150.58 -64.43,-43.29 -113.88,-89.13 -178.36,-132.08l-4.69 -55.93 -125.36 14.24c-204.87,-107.52 -413.64,-204.89 -625.62,-293.85 -33.95,-13.6 -127.19,10.35 -167.54,16.27 -304.46,78.55 -487.52,62.62 -804.87,44.74l-89.04 1.02c-123.67,24.27 -194.5,94.82 -278.83,153.54l-135.9 83.37 -118.33 89.48c-48.6,76.6 -27.43,153.19 -30.46,229.79 2.28,18.27 12.4,31.63 26.09,42.74l546.81 477.85c69.98,86.47 109.25,137.28 141.76,243.01l373.15 0c2.1,-102.35 -153.85,-143.67 -243.1,-171.83l96.07 -213.52c8.44,-48.36 15.12,-83.12 8.2,-131.17 167.64,-6.61 332.62,-6.61 499.09,-26.44l519.01 542.96 394.78 0z"/>
  </g>
  <path class="fil0 str0" d="M1966.41 2916.51l-144.11 555.16 285.87 0c2.34,0 3.52,0 5.86,0 38.66,0 74.98,-12.2 104.27,-33.56 31.63,-20.33 53.89,-50.84 60.93,-85.41l82.01 -312.15c2.34,-8.14 3.52,-16.27 3.52,-24.41 0,-18.3 -7.03,-36.6 -18.74,-52.87 -15.23,-23.39 -42.18,-39.65 -72.64,-44.74 -9.37,-2.03 -17.57,-2.03 -26.95,-2.03l-280 0zm390.13 -394.51l-287.04 0 96.07 -368.07 280.01 0c1.17,0 1.17,0 2.34,0 8.2,0 16.41,1.02 23.43,3.05 31.63,5.08 57.41,21.35 73.81,44.74 11.71,15.25 18.74,33.56 18.74,52.87 0,8.13 -1.17,16.27 -3.52,23.39l-32.8 125.06c-7.03,34.57 -29.29,65.07 -60.92,86.43 -31.63,22.37 -70.3,34.57 -110.13,32.54zm-1040.36 -709.71l14.06 -69.14 1677.7 0 39.83 2.04c76.15,10.17 144.11,45.76 189.8,99.64 37.49,42.7 57.41,94.56 57.41,148.45 0,12.2 -1.17,25.42 -3.52,37.62 -10.54,48.8 -24.6,105.74 -38.66,163.7 -21.09,92.53 -46.87,180.99 -77.33,267.42 -48.32,106.76 -110.46,128.35 -220.26,186.07 251.73,146.47 253.23,167.27 191.45,402.23l-151.18 574.89c-79.8,233.97 -207.81,289.78 -399.94,287.75l-1505.48 0c-10.55,0 -19.92,-1.02 -29.29,-3.05 -38.66,-7.12 -72.64,-27.46 -94.9,-55.93 -21.09,-28.47 -29.29,-64.06 -21.09,-97.61l481.52 -1861.72c2.35,-4.07 2.35,-9.15 2.35,-14.23 0,-13.22 -4.69,-26.44 -14.06,-37.62 -12.89,-15.25 -31.63,-25.42 -53.89,-26.44l-44.52 -4.07z"/>
 </g>
</svg>
