<?xml version="1.0" encoding="UTF-8"?>
<!DOCTYPE svg PUBLIC "-//W3C//DTD SVG 1.1//EN" "http://www.w3.org/Graphics/SVG/1.1/DTD/svg11.dtd">
<!-- Creator: CorelDRAW 2019 (64-Bit) -->
<svg xmlns="http://www.w3.org/2000/svg" xml:space="preserve" width="32px" height="32px" version="1.1" style="shape-rendering:geometricPrecision; text-rendering:geometricPrecision; image-rendering:optimizeQuality; fill-rule:evenodd; clip-rule:evenodd"
viewBox="0 0 32 32"
 xmlns:xlink="http://www.w3.org/1999/xlink"
 xmlns:xodm="http://www.corel.com/coreldraw/odm/2003">
 <defs>
  <style type="text/css">
   <![CDATA[
    .fil0 {fill:none}
    .fil1 {fill:#D7CC75}
   ]]>
  </style>
 </defs>
 <g id="Layer_x0020_2">
  <metadata id="CorelCorpID_0Corel-Layer"/>
  <circle class="fil0" cx="16" cy="16" r="16"/>
  <g id="_1667823109616">
   <path class="fil1" d="M4.28 23.52l-4.26 0c-0.03,-0.62 -0.08,-1.58 0.34,-2.07 0.16,-1.75 0.24,-3.61 2.01,-4.7l3.21 2.78c-0.64,1.1 -1.72,1.66 -2.87,2.36 0.88,0.51 1.47,0.59 1.57,1.63z"/>
   <polygon class="fil1" points="28.18,12.08 28.95,11.98 29.15,12.76 "/>
   <path class="fil1" d="M13.56 19.63l0.85 -1.04 3.05 -0.3c0.67,1.44 -0.29,1.54 -1.03,2.51l0 0.72c0.44,0.16 1.83,0.72 1.36,1.34l-3.05 0 -1.18 -3.23z"/>
   <path class="fil1" d="M27.52 23.51c0.01,-0.16 -0.02,-0.31 -0.1,-0.47 -1.08,-0.7 -2.18,-0.75 -2.98,-1.77l-1.36 -3.25c0.14,-0.68 0.08,-0.6 0.84,-0.87l1.17 0.77c0.77,0.4 0.92,0.54 1.82,0.55 0.64,0.04 1.17,0.08 1.77,0.3 0.33,0.15 0.31,0.14 0.68,0.07 0.25,-0.01 0.44,0.01 0.67,-0.08 0.24,-0.02 0.33,-0.1 0.28,-0.21l-0.46 -0.66 -0.05 -0.2 -0.14 -0.16 -0.3 -0.25c0,-0.82 0.5,-0.11 0.82,0.2l0.03 0.25 0.35 0c0.59,0.16 0.92,0.21 1.16,0 0.19,-0.08 0.24,-0.34 0.28,-0.56l-1.46 -1.94c0.07,-1.03 0.09,-0.97 -0.89,-1.63 -0.7,-0.47 -1.23,-0.97 -1.93,-1.44l-0.05 -0.6 -1.36 0.15c-2.22,-1.16 -4.49,-2.22 -6.78,-3.18 -0.37,-0.15 -1.38,0.11 -1.82,0.17 -3.3,0.86 -5.29,0.68 -8.73,0.49l-0.96 0.01c-1.34,0.26 -2.11,1.03 -3.02,1.66l-1.48 0.91 -1.28 0.97c-0.53,0.83 -0.3,1.66 -0.33,2.49 0.02,0.2 0.13,0.34 0.28,0.46l5.93 5.18c0.76,0.94 1.19,1.49 1.54,2.64l4.04 0c0.03,-1.11 -1.67,-1.56 -2.63,-1.87l1.04 -2.31c0.09,-0.52 0.16,-0.9 0.09,-1.42 1.82,-0.07 3.6,-0.07 5.41,-0.29l5.63 5.89 4.28 0z"/>
  </g>
 </g>
</svg>
